<svg width="20" height="20" xmlns="http://www.w3.org/2000/svg">
 <!--! Font Awesome Pro 6.3.0 by @fontawesome - https://fontawesome.com License - https://fontawesome.com/license (Commercial License) Copyright 2023 Fonticons, Inc. -->

 <g>
  <title>Layer 1</title>
  <path transform="rotate(89.9569 256 256)" id="svg_1" d="m270.7,9.7c-2.5,-5.9 -8.3,-9.7 -14.7,-9.7s-12.2,3.8 -14.7,9.7l-44.1,102.9c-3.4,8 -5.2,16.5 -5.2,25.2l0,77l-144,84l0,-18.8c0,-13.3 -10.7,-24 -24,-24s-24,10.7 -24,24l0,56l0,32l0,24c0,13.3 10.7,24 24,24s24,-10.7 24,-24l0,-8l144,0l0,32.7l-58.5,51.3c-3.5,3 -5.5,7.4 -5.5,12l0,16c0,8.8 7.2,16 16,16l96,0l0,-64c0,-8.8 7.2,-16 16,-16s16,7.2 16,16l0,64l96,0c8.8,0 16,-7.2 16,-16l0,-16c0,-4.6 -2,-9 -5.5,-12l-58.5,-51.3l0,-32.7l144,0l0,8c0,13.3 10.7,24 24,24s24,-10.7 24,-24l0,-24l0,-32l0,-56c0,-13.3 -10.7,-24 -24,-24s-24,10.7 -24,24l0,18.8l-144,-84l0,-77c0,-8.7 -1.8,-17.2 -5.2,-25.2l-44.1,-102.9z"/>
 </g>
</svg>